<mxfile host="app.diagrams.net" agent="Mozilla/5.0 (X11; Linux x86_64; rv:134.0) Gecko/20100101 Firefox/134.0" version="26.0.11">
  <diagram name="Page-1" id="c37626ed-c26b-45fb-9056-f9ebc6bb27b6">
    <mxGraphModel dx="1434" dy="759" grid="1" gridSize="10" guides="1" tooltips="1" connect="1" arrows="1" fold="1" page="1" pageScale="1" pageWidth="1100" pageHeight="850" background="none" math="0" shadow="0">
      <root>
        <mxCell id="0" />
        <mxCell id="1" parent="0" />
        <mxCell id="bU7S4ERMX5JgMJu_IhuA-4" value="&lt;font style=&quot;font-size: 16px;&quot;&gt;&lt;b&gt;c7200 Router&lt;/b&gt;&lt;/font&gt;" style="shape=mxgraph.cisco.routers.router;sketch=0;html=1;pointerEvents=1;dashed=0;fillColor=#036897;strokeColor=#ffffff;strokeWidth=2;verticalLabelPosition=bottom;verticalAlign=top;align=center;outlineConnect=0;" vertex="1" parent="1">
          <mxGeometry x="490" y="270" width="78" height="53" as="geometry" />
        </mxCell>
        <mxCell id="bU7S4ERMX5JgMJu_IhuA-5" value="&lt;font style=&quot;font-size: 16px;&quot;&gt;&lt;b&gt;c3640 Router&lt;/b&gt;&lt;/font&gt;" style="shape=mxgraph.cisco.routers.router;sketch=0;html=1;pointerEvents=1;dashed=0;fillColor=#036897;strokeColor=#ffffff;strokeWidth=2;verticalLabelPosition=bottom;verticalAlign=top;align=center;outlineConnect=0;" vertex="1" parent="1">
          <mxGeometry x="370" y="450" width="78" height="53" as="geometry" />
        </mxCell>
        <mxCell id="bU7S4ERMX5JgMJu_IhuA-6" value="&lt;font style=&quot;font-size: 16px;&quot;&gt;&lt;b&gt;c3640 Router&lt;/b&gt;&lt;/font&gt;" style="shape=mxgraph.cisco.routers.router;sketch=0;html=1;pointerEvents=1;dashed=0;fillColor=#036897;strokeColor=#ffffff;strokeWidth=2;verticalLabelPosition=bottom;verticalAlign=top;align=center;outlineConnect=0;" vertex="1" parent="1">
          <mxGeometry x="610" y="450" width="78" height="53" as="geometry" />
        </mxCell>
        <mxCell id="bU7S4ERMX5JgMJu_IhuA-7" value="&lt;font style=&quot;font-size: 16px;&quot;&gt;&lt;b&gt;15.1a i686 Switch&lt;/b&gt;&lt;/font&gt;" style="shape=mxgraph.cisco.switches.workgroup_switch;sketch=0;html=1;pointerEvents=1;dashed=0;fillColor=#036897;strokeColor=#ffffff;strokeWidth=2;verticalLabelPosition=bottom;verticalAlign=top;align=center;outlineConnect=0;" vertex="1" parent="1">
          <mxGeometry x="598.5" y="580" width="101" height="50" as="geometry" />
        </mxCell>
        <mxCell id="bU7S4ERMX5JgMJu_IhuA-8" value="&lt;font style=&quot;font-size: 16px;&quot;&gt;&lt;b&gt;15.1a i686 Switch&lt;/b&gt;&lt;/font&gt;" style="shape=mxgraph.cisco.switches.workgroup_switch;sketch=0;html=1;pointerEvents=1;dashed=0;fillColor=#036897;strokeColor=#ffffff;strokeWidth=2;verticalLabelPosition=bottom;verticalAlign=top;align=center;outlineConnect=0;" vertex="1" parent="1">
          <mxGeometry x="358.5" y="580" width="101" height="50" as="geometry" />
        </mxCell>
        <mxCell id="bU7S4ERMX5JgMJu_IhuA-9" value="&lt;font style=&quot;font-size: 16px;&quot;&gt;&lt;b&gt;15.1a i686 Switch&lt;/b&gt;&lt;/font&gt;" style="shape=mxgraph.cisco.switches.workgroup_switch;sketch=0;html=1;pointerEvents=1;dashed=0;fillColor=#036897;strokeColor=#ffffff;strokeWidth=2;verticalLabelPosition=bottom;verticalAlign=top;align=center;outlineConnect=0;" vertex="1" parent="1">
          <mxGeometry x="598.5" y="720" width="101" height="50" as="geometry" />
        </mxCell>
        <mxCell id="bU7S4ERMX5JgMJu_IhuA-11" value="" style="endArrow=none;html=1;rounded=0;strokeWidth=3;exitX=0.5;exitY=0;exitDx=0;exitDy=0;exitPerimeter=0;entryX=0.12;entryY=0.9;entryDx=0;entryDy=0;entryPerimeter=0;" edge="1" parent="1" source="bU7S4ERMX5JgMJu_IhuA-5" target="bU7S4ERMX5JgMJu_IhuA-4">
          <mxGeometry width="50" height="50" relative="1" as="geometry">
            <mxPoint x="540" y="620" as="sourcePoint" />
            <mxPoint x="590" y="570" as="targetPoint" />
          </mxGeometry>
        </mxCell>
        <mxCell id="bU7S4ERMX5JgMJu_IhuA-12" value="" style="endArrow=none;html=1;rounded=0;strokeWidth=3;exitX=0.5;exitY=0;exitDx=0;exitDy=0;exitPerimeter=0;entryX=0.88;entryY=0.9;entryDx=0;entryDy=0;entryPerimeter=0;" edge="1" parent="1" source="bU7S4ERMX5JgMJu_IhuA-6" target="bU7S4ERMX5JgMJu_IhuA-4">
          <mxGeometry width="50" height="50" relative="1" as="geometry">
            <mxPoint x="419" y="460" as="sourcePoint" />
            <mxPoint x="518" y="333" as="targetPoint" />
          </mxGeometry>
        </mxCell>
        <mxCell id="bU7S4ERMX5JgMJu_IhuA-13" value="" style="endArrow=none;html=1;rounded=0;strokeWidth=3;exitX=0.5;exitY=0;exitDx=0;exitDy=0;exitPerimeter=0;entryX=0.5;entryY=1;entryDx=0;entryDy=0;entryPerimeter=0;" edge="1" parent="1" source="bU7S4ERMX5JgMJu_IhuA-7" target="bU7S4ERMX5JgMJu_IhuA-6">
          <mxGeometry width="50" height="50" relative="1" as="geometry">
            <mxPoint x="659" y="460" as="sourcePoint" />
            <mxPoint x="569" y="328" as="targetPoint" />
          </mxGeometry>
        </mxCell>
        <mxCell id="bU7S4ERMX5JgMJu_IhuA-14" value="" style="endArrow=none;html=1;rounded=0;strokeWidth=3;exitX=0;exitY=0.5;exitDx=0;exitDy=0;exitPerimeter=0;entryX=1;entryY=0.5;entryDx=0;entryDy=0;entryPerimeter=0;" edge="1" parent="1" source="bU7S4ERMX5JgMJu_IhuA-6" target="bU7S4ERMX5JgMJu_IhuA-5">
          <mxGeometry width="50" height="50" relative="1" as="geometry">
            <mxPoint x="669" y="470" as="sourcePoint" />
            <mxPoint x="579" y="338" as="targetPoint" />
          </mxGeometry>
        </mxCell>
        <mxCell id="bU7S4ERMX5JgMJu_IhuA-15" value="" style="endArrow=none;html=1;rounded=0;strokeWidth=3;exitX=0.5;exitY=0;exitDx=0;exitDy=0;exitPerimeter=0;entryX=0.5;entryY=1;entryDx=0;entryDy=0;entryPerimeter=0;" edge="1" parent="1" source="bU7S4ERMX5JgMJu_IhuA-8" target="bU7S4ERMX5JgMJu_IhuA-5">
          <mxGeometry width="50" height="50" relative="1" as="geometry">
            <mxPoint x="679" y="480" as="sourcePoint" />
            <mxPoint x="589" y="348" as="targetPoint" />
          </mxGeometry>
        </mxCell>
        <mxCell id="bU7S4ERMX5JgMJu_IhuA-17" value="&lt;div&gt;&lt;b&gt;&lt;font style=&quot;font-size: 16px;&quot;&gt;Database&lt;/font&gt;&lt;/b&gt;&lt;/div&gt;&lt;div&gt;&lt;b&gt;&lt;font style=&quot;font-size: 16px;&quot;&gt;VLAN&lt;/font&gt;&lt;/b&gt;&lt;/div&gt;" style="ellipse;shape=cloud;whiteSpace=wrap;html=1;strokeWidth=3;" vertex="1" parent="1">
          <mxGeometry x="150" y="630" width="130" height="96.5" as="geometry" />
        </mxCell>
        <mxCell id="bU7S4ERMX5JgMJu_IhuA-18" value="&lt;div&gt;&lt;b&gt;&lt;font style=&quot;font-size: 16px;&quot;&gt;Managem&lt;/font&gt;&lt;/b&gt;&lt;/div&gt;&lt;div&gt;&lt;b&gt;&lt;font style=&quot;font-size: 16px;&quot;&gt;VLAN&lt;/font&gt;&lt;/b&gt;&lt;/div&gt;" style="ellipse;shape=cloud;whiteSpace=wrap;html=1;strokeWidth=3;" vertex="1" parent="1">
          <mxGeometry x="459.5" y="640" width="130" height="95" as="geometry" />
        </mxCell>
        <mxCell id="bU7S4ERMX5JgMJu_IhuA-19" value="" style="endArrow=none;html=1;rounded=0;strokeWidth=3;exitX=0.5;exitY=0;exitDx=0;exitDy=0;exitPerimeter=0;entryX=0.5;entryY=0.98;entryDx=0;entryDy=0;entryPerimeter=0;" edge="1" parent="1" source="bU7S4ERMX5JgMJu_IhuA-9" target="bU7S4ERMX5JgMJu_IhuA-7">
          <mxGeometry width="50" height="50" relative="1" as="geometry">
            <mxPoint x="659" y="590" as="sourcePoint" />
            <mxPoint x="659" y="513" as="targetPoint" />
          </mxGeometry>
        </mxCell>
      </root>
    </mxGraphModel>
  </diagram>
</mxfile>
